<svg version="1.1" id="Layer_1" xmlns="http://www.w3.org/2000/svg" xmlns:xlink="http://www.w3.org/1999/xlink" x="0px" y="0px"
	 width="100%" viewBox="0 0 512 512" enable-background="new 0 0 512 512" xml:space="preserve">
<path fill="#000000" opacity="1.000000" stroke="none" 
	d="
M340.000000,513.000000 
	C226.694199,513.000000 113.888390,513.000000 1.041291,513.000000 
	C1.041291,342.402496 1.041291,171.804993 1.041291,1.103745 
	C171.555817,1.103745 342.111694,1.103745 512.833801,1.103745 
	C512.833801,171.666534 512.833801,342.333252 512.833801,513.000000 
	C455.471649,513.000000 397.985809,513.000000 340.000000,513.000000 
M451.103882,62.020599 
	C435.289185,44.856068 404.973328,45.224773 389.190277,63.960445 
	C365.331604,92.282532 342.404144,121.389069 318.449829,149.848419 
	C310.906921,145.689468 303.636780,140.899277 295.766327,137.498245 
	C277.325195,129.529282 258.198273,125.704338 238.176514,130.989029 
	C224.631561,134.564178 214.465561,142.919128 205.472885,153.856674 
	C197.566895,161.705414 189.831284,169.735474 181.715286,177.360703 
	C169.321472,189.005066 164.147766,203.664978 164.203720,220.115387 
	C164.232590,228.598267 166.188141,237.074615 166.361908,245.692230 
	C163.925018,245.778809 161.488144,245.865402 158.118820,245.799316 
	C150.854294,246.364532 143.393921,246.055511 136.355927,247.632004 
	C75.240204,261.321838 38.612877,319.226135 52.847549,381.125641 
	C57.689064,402.178955 68.362679,420.206085 84.410843,434.878784 
	C105.512672,454.172150 130.087204,464.515564 159.876770,463.918579 
	C164.836548,463.652802 169.867523,463.831970 174.744934,463.051453 
	C216.880371,456.308990 245.631012,432.672821 261.765320,393.421204 
	C267.894348,378.510437 268.809296,362.792023 269.070251,346.878906 
	C272.621582,347.509888 276.165466,348.186920 279.725525,348.764099 
	C298.458679,351.801300 316.437378,349.789124 331.274109,337.204132 
	C342.114044,328.009399 351.512543,317.115326 362.076904,306.656311 
	C363.985809,304.803558 365.832275,302.880951 367.813721,301.109344 
	C381.656799,288.732422 386.499573,272.520447 385.716858,254.849060 
	C384.739746,232.788208 376.846741,212.799362 364.457001,194.370392 
	C370.993591,189.274094 377.617889,184.285782 384.050446,179.061417 
	C403.846649,162.983429 423.338226,146.520294 443.400421,130.783371 
	C457.295074,119.884315 465.600983,106.875214 463.965454,88.627007 
	C463.043060,78.335037 459.582458,69.372627 451.103882,62.020599 
z"/>
<path fill="#39D352" opacity="1.000000" stroke="none" 
	d="
M158.951782,463.803436 
	C130.087204,464.515564 105.512672,454.172150 84.410843,434.878784 
	C68.362679,420.206085 57.689064,402.178955 52.847549,381.125641 
	C38.612877,319.226135 75.240204,261.321838 136.355927,247.632004 
	C143.393921,246.055511 150.854294,246.364532 158.605530,246.346893 
	C159.101624,278.367432 159.100174,309.840424 159.139969,341.313354 
	C159.143326,343.968018 159.423035,346.622375 159.480316,349.585510 
	C158.920639,350.576752 158.454956,351.259338 157.694427,352.104553 
	C153.997559,355.575073 150.595551,358.882935 146.175003,363.181091 
	C141.084045,357.411591 136.410568,352.115204 132.151932,347.288940 
	C126.174484,353.158051 120.871490,358.364929 115.726685,363.416473 
	C126.166504,373.690033 136.778244,384.132751 148.485489,395.653534 
	C151.777069,391.943634 155.392303,387.868958 159.010071,383.928345 
	C159.012604,384.062378 159.102188,384.315125 159.116852,384.763855 
	C159.071594,411.409515 159.011688,437.606476 158.951782,463.803436 
z"/>
<path fill="#358B43" opacity="1.000000" stroke="none" 
	d="
M159.414276,463.861023 
	C159.011688,437.606476 159.071594,411.409515 159.350510,384.526093 
	C174.290253,368.995880 189.010986,354.152130 202.944672,340.102020 
	C197.085739,334.259949 191.630722,328.820648 185.135162,322.343781 
	C176.968338,330.949066 168.271347,340.112976 159.574356,349.276855 
	C159.423035,346.622375 159.143326,343.968018 159.139969,341.313354 
	C159.100174,309.840424 159.101624,278.367432 159.071747,246.423218 
	C161.488144,245.865402 163.925018,245.778809 167.113602,245.863220 
	C168.508255,247.732300 169.188599,249.417267 169.788513,251.130417 
	C177.446274,272.997864 189.820465,291.793610 206.786240,307.980469 
	C222.887177,324.884064 241.679550,337.044922 263.489746,344.527832 
	C265.179413,345.107513 266.724915,346.107452 268.337433,346.912018 
	C268.809296,362.792023 267.894348,378.510437 261.765320,393.421204 
	C245.631012,432.672821 216.880371,456.308990 174.744934,463.051453 
	C169.867523,463.831970 164.836548,463.652802 159.414276,463.861023 
z"/>
<path fill="#5D7581" opacity="1.000000" stroke="none" 
	d="
M206.208542,153.904724 
	C214.465561,142.919128 224.631561,134.564178 238.176514,130.989029 
	C258.198273,125.704338 277.325195,129.529282 295.766327,137.498245 
	C303.636780,140.899277 310.906921,145.689468 318.737762,150.346069 
	C318.380798,151.800232 317.803741,152.811615 317.080933,153.705124 
	C305.201904,168.389175 293.255127,183.018951 281.475037,197.781784 
	C280.036438,199.584641 278.484406,202.174103 278.674103,204.244263 
	C279.418335,212.366547 282.449615,219.632828 288.859558,225.439255 
	C288.994873,226.090668 289.074921,226.462494 288.947754,227.111389 
	C273.049927,243.003479 257.359314,258.618530 241.417099,274.178467 
	C240.831070,274.045959 240.496658,273.968628 239.963974,273.621460 
	C225.537674,258.617554 213.621002,242.280441 206.316391,223.015869 
	C197.947418,200.944244 194.598495,178.668839 205.688400,156.329636 
	C206.044617,155.612091 206.043228,154.717026 206.208542,153.904724 
z"/>
<path fill="#465A61" opacity="1.000000" stroke="none" 
	d="
M241.668701,274.233582 
	C257.359314,258.618530 273.049927,243.003479 289.226715,227.295563 
	C290.897125,228.118851 291.978210,229.229355 293.281525,229.921219 
	C307.022888,237.216080 310.721466,238.663574 321.739349,229.075943 
	C335.407166,217.182419 349.866760,206.198792 363.984344,194.822144 
	C376.846741,212.799362 384.739746,232.788208 385.716858,254.849060 
	C386.499573,272.520447 381.656799,288.732422 367.813721,301.109344 
	C365.832275,302.880951 363.985809,304.803558 361.412476,306.794373 
	C359.963318,307.180847 359.097382,307.291229 358.405731,307.698029 
	C343.634277,316.385010 327.543549,316.480011 311.541290,313.621338 
	C298.330444,311.261353 285.616028,306.559509 274.016144,299.514984 
	C262.252441,292.370911 250.680603,284.924347 241.668701,274.233582 
z"/>
<path fill="#F1E36E" opacity="1.000000" stroke="none" 
	d="
M288.804291,225.159683 
	C282.449615,219.632828 279.418335,212.366547 278.674103,204.244263 
	C278.484406,202.174103 280.036438,199.584641 281.475037,197.781784 
	C293.255127,183.018951 305.201904,168.389175 317.080933,153.705124 
	C317.803741,152.811615 318.380798,151.800232 319.053345,150.502975 
	C342.404144,121.389069 365.331604,92.282532 389.190277,63.960445 
	C404.973328,45.224773 435.289185,44.856068 451.015625,62.561813 
	C405.393585,108.680374 359.865417,154.263275 314.321075,199.830063 
	C305.848785,208.306549 297.311554,216.718140 288.804291,225.159683 
z"/>
<path fill="#997410" opacity="1.000000" stroke="none" 
	d="
M288.859558,225.439255 
	C297.311554,216.718140 305.848785,208.306549 314.321075,199.830063 
	C359.865417,154.263275 405.393585,108.680374 451.197754,62.844841 
	C459.582458,69.372627 463.043060,78.335037 463.965454,88.627007 
	C465.600983,106.875214 457.295074,119.884315 443.400421,130.783371 
	C423.338226,146.520294 403.846649,162.983429 384.050446,179.061417 
	C377.617889,184.285782 370.993591,189.274094 364.220673,194.596268 
	C349.866760,206.198792 335.407166,217.182419 321.739349,229.075943 
	C310.721466,238.663574 307.022888,237.216080 293.281525,229.921219 
	C291.978210,229.229355 290.897125,228.118851 289.433960,227.018524 
	C289.074921,226.462494 288.994873,226.090668 288.859558,225.439255 
z"/>
<path fill="#F1E46E" opacity="1.000000" stroke="none" 
	d="
M205.840714,153.880707 
	C206.043228,154.717026 206.044617,155.612091 205.688400,156.329636 
	C194.598495,178.668839 197.947418,200.944244 206.316391,223.015869 
	C213.621002,242.280441 225.537674,258.617554 239.729187,273.873993 
	C228.664597,285.503845 217.636505,296.611389 206.608414,307.718933 
	C189.820465,291.793610 177.446274,272.997864 169.788513,251.130417 
	C169.188599,249.417267 168.508255,247.732300 167.569214,245.794067 
	C166.188141,237.074615 164.232590,228.598267 164.203720,220.115387 
	C164.147766,203.664978 169.321472,189.005066 181.715286,177.360703 
	C189.831284,169.735474 197.566895,161.705414 205.840714,153.880707 
z"/>
<path fill="#997411" opacity="1.000000" stroke="none" 
	d="
M206.786240,307.980469 
	C217.636505,296.611389 228.664597,285.503845 239.927460,274.143799 
	C240.496658,273.968628 240.831070,274.045959 241.417084,274.178467 
	C250.680603,284.924347 262.252441,292.370911 274.016144,299.514984 
	C285.616028,306.559509 298.330444,311.261353 311.541290,313.621338 
	C327.543549,316.480011 343.634277,316.385010 358.405731,307.698029 
	C359.097382,307.291229 359.963318,307.180847 361.150818,306.955566 
	C351.512543,317.115326 342.114044,328.009399 331.274109,337.204132 
	C316.437378,349.789124 298.458679,351.801300 279.725525,348.764099 
	C276.165466,348.186920 272.621582,347.509888 268.703857,346.895447 
	C266.724915,346.107452 265.179413,345.107513 263.489746,344.527832 
	C241.679550,337.044922 222.887177,324.884064 206.786240,307.980469 
z"/>
<path fill="#EBE0DA" opacity="1.000000" stroke="none" 
	d="
M159.480347,349.585541 
	C168.271347,340.112976 176.968338,330.949066 185.135162,322.343781 
	C191.630722,328.820648 197.085739,334.259949 202.944672,340.102020 
	C189.010986,354.152130 174.290253,368.995880 159.335846,384.077393 
	C159.102188,384.315125 159.012604,384.062378 159.017059,383.471802 
	C159.026199,376.787720 159.160492,370.690582 158.991119,364.601898 
	C158.873550,360.375885 158.338058,356.161469 157.989288,351.941895 
	C158.454956,351.259338 158.920639,350.576752 159.480347,349.585541 
z"/>
<path fill="#FBF4F2" opacity="1.000000" stroke="none" 
	d="
M157.694427,352.104553 
	C158.338058,356.161469 158.873550,360.375885 158.991119,364.601898 
	C159.160492,370.690582 159.026199,376.787720 159.014526,383.337769 
	C155.392303,387.868958 151.777069,391.943634 148.485489,395.653534 
	C136.778244,384.132751 126.166504,373.690033 115.726685,363.416473 
	C120.871490,358.364929 126.174484,353.158051 132.151932,347.288940 
	C136.410568,352.115204 141.084045,357.411591 146.175003,363.181091 
	C150.595551,358.882935 153.997559,355.575073 157.694427,352.104553 
z"/>
</svg>